<svg id="Слой_1" xmlns="http://www.w3.org/2000/svg" width="480" height="376" viewBox="0 0 480 376"><style>.st0{fill:#47a347}</style><path class="st0" d="M272.1 171.7c.6 3.9 3.9 6.9 7.9 6.9.4 0 .8 0 1.1-.1 4.4-.6 7.4-4.7 6.8-9.1-8.7-60.6-75.2-77.9-78-78.6-4.3-1-8.6 1.6-9.6 5.8-1.1 4.3 1.5 8.6 5.8 9.7.5.2 58.8 15.3 66 65.4z"/><path class="st0" d="M472 186.6c-15-.1-29.8 3.4-43.2 10.1-4.5 2.1-9.2 3.9-14 5.5-2.8-42.6-22.7-82.2-55.2-109.8-70.2-59.2-183-55.5-215.6-53.1V24c0-13.3-10.7-24-24-24H88C74.7 0 64 10.7 64 24H0v112h64c0 13.3 10.7 24 24 24h32c13.3 0 24-10.7 24-24v-15.5c35.7 4.2 46.7 36.9 48.9 68.6-10.5-7.2-22.9-10.8-35.6-10.5-15.3-.2-30.2 5.1-42 14.9-9 7.9-20.7 12.1-32.6 11.9-11.8.3-23.5-2.6-33.7-8.6-12.5-7.1-26.6-10.6-40.9-10.3-4.4 0-8 3.6-8 8v48c0 .4.1.9.3 1.3-.1.4-.2.8-.3 1.3 0 4.4 3.6 8 8 8 12-.2 23.6 4.1 32.6 11.9 11.8 9.9 26.7 15.2 42 15 15.3.2 30.2-5.1 42-15 18.9-15.9 46.4-15.9 65.3 0 11.8 9.9 26.7 15.2 42 15 15.9-.1 31.4-5.2 44.3-14.7 21.1-16.3 50.5-16.3 71.5 0 26.3 19.6 62.3 19.6 88.5 0 10.3-7.8 22.8-12.1 35.7-12.2 4.4 0 8-3.6 8-8 0-.4-.1-.9-.3-1.3.1-.4.2-.8.3-1.3v-48c0-4.4-3.6-7.9-8-7.9zM16 120V40h48v80H16zm112 16c0 4.4-3.6 8-8 8H88c-4.4 0-8-3.6-8-8V24c0-4.4 3.6-8 8-8h32c4.4 0 8 3.6 8 8v112zm16-31.6v-49c28.9-2.1 139.6-6.2 205.3 49.3 29.6 25.4 47.5 61.7 49.7 100.6-2.2.2-4.5.3-7 .3-3.7 0-7.4-.3-11-1-16.4-82.7-79.8-104.7-82.4-105.6-4.2-1.4-8.7.9-10.1 5.1-1.4 4.2.9 8.7 5.1 10.1.5.2 51.8 18.1 69.3 83.1-2.2-1.3-4.3-2.6-6.5-4-26.3-19.6-62.3-19.6-88.6 0-5.5 3.7-11.3 6.8-17.5 9.2-.1-17.7-3.8-35.3-11-51.5-2-4-6.8-5.6-10.7-3.6-4 2-5.6 6.8-3.6 10.7 6.4 14.9 9.6 31 9.4 47.2-.8 0-1.5.1-2.3.1-7.9.3-15.7-1.6-22.7-5.4-.6-57.4-24.2-91.8-65.4-95.6zm283.7 147.4c-21 16.3-50.4 16.3-71.5 0-26.3-19.6-62.3-19.6-88.6 0-10.3 7.8-22.8 12.1-35.8 12.2-12 .2-23.6-4.1-32.7-11.9-24.5-19.9-59.5-19.9-84 0-9 7.9-20.7 12.1-32.7 11.9-12 .2-23.6-4.1-32.6-11.9-9.7-8-21.5-13.1-34-14.5V203c9.1.9 17.8 3.7 25.7 8.2 12.5 7.1 26.6 10.6 40.9 10.3 15.3.2 30.2-5.1 42-14.9 18.9-15.9 46.4-15.9 65.3 0 11.8 9.8 26.7 15.1 42 14.9 15.9-.1 31.4-5.2 44.3-14.7 21.1-16.3 50.4-16.3 71.5 0 12.8 9.4 28.3 14.6 44.3 14.7 15 .1 29.8-3.4 43.2-10.1 9-4.5 18.7-7.4 28.8-8.4v34.6c-12.9 1.6-25.4 6.5-36.1 14.2z"/><path class="st0" d="M472 282.6c-16.2.2-31.9 5.9-44.5 16.1-9.9 8.4-22.5 13.1-35.5 13.3-12.9-.1-25.5-4.4-35.7-12.2-26.3-19.6-62.3-19.6-88.6 0-10.3 7.8-22.8 12.1-35.8 12.2-12 .2-23.6-4.1-32.7-11.9-24.5-19.9-59.5-19.9-84 0-9 7.9-20.7 12.1-32.7 11.9-12.1.1-23.7-4.6-32.4-13-11.3-10.7-26.4-16.6-42.1-16.4-4.4 0-8 3.6-8 8v48c0 4.4 3.6 8 8 8 12.1-.1 23.7 4.6 32.4 13C51.8 370.2 67 376.1 82.6 376c15.3.2 30.2-5.1 42-15 18.9-15.9 46.4-15.9 65.3 0 11.8 9.9 26.7 15.2 42 15 15.9-.1 31.4-5.2 44.3-14.7 21.1-16.3 50.5-16.3 71.5 0 12.8 9.4 28.3 14.6 44.3 14.7 16.2-.2 31.9-5.9 44.5-16.1 9.9-8.4 22.5-13.1 35.5-13.3 4.4 0 8-3.6 8-8v-48c0-4.5-3.6-8-8-8zm-8 48.4c-13.4 1.9-26 7.3-36.5 15.7-9.9 8.4-22.5 13.1-35.5 13.3-12.9-.1-25.5-4.4-35.7-12.2-26.3-19.6-62.3-19.6-88.6 0-10.3 7.8-22.8 12.1-35.8 12.2-12 .2-23.6-4.1-32.7-11.9-24.5-19.9-59.5-19.9-84 0-9 7.9-20.7 12.1-32.7 11.9-12.1.1-23.7-4.6-32.4-13-9.5-8.7-21.5-14.3-34.3-16v-31.8c9.1 1.7 17.6 6 24.4 12.3C51.8 322.2 67 328.1 82.6 328c15.3.2 30.2-5.1 42-15 18.9-15.9 46.4-15.9 65.3 0 11.8 9.9 26.7 15.2 42 15 15.9-.1 31.4-5.2 44.3-14.7 21.1-16.3 50.5-16.3 71.5 0 12.8 9.4 28.3 14.6 44.3 14.7 16.2-.2 31.9-5.9 44.5-16.1 8-6.5 17.4-10.8 27.5-12.8V331zM40 58.6c-4.4 0-8 3.6-8 8v32c0 4.4 3.6 8 8 8s8-3.6 8-8v-32c0-4.5-3.6-8-8-8z"/></svg>