<?xml version="1.0" encoding="UTF-8"?> <svg xmlns="http://www.w3.org/2000/svg" id="Слой_1" width="511" height="511" viewBox="0 0 511 511"><style>.st0{fill:#393}</style><path class="st0" d="M502.9 126.9c4.2 0 7.6-3.4 7.6-7.6V60.1c0-20.5-16.7-37.2-37.2-37.2h-44.5v-1.6C428.8 9 418.8-1 406.5-1h-75.6c-12.3 0-22.2 10-22.2 22.2v1.6h-55.6c-20.5 0-37.2 16.7-37.2 37.2v72.5H37.4c-20 0-36.4 16.3-36.4 36.4v304.7c0 20 16.3 36.4 36.4 36.4H63c4.2 0 7.6-3.4 7.6-7.6s-3.4-7.6-7.6-7.6H37.4c-11.7 0-21.2-9.5-21.2-21.2V168.9c0-11.7 9.5-21.2 21.2-21.2h178.5v15.1H38.8c-4.2 0-7.6 3.4-7.6 7.6v74.8c0 4.2 3.4 7.6 7.6 7.6h177.1v16.8H38.8c-4.2 0-7.6 3.4-7.6 7.6V473c0 4.2 3.4 7.6 7.6 7.6h203.4c4.2 0 7.6-3.4 7.6-7.6V366c1.1.1 2.2.2 3.3.2h11.8v107.5c0 11.7-9.5 21.2-21.2 21.2H88.3c-4.2 0-7.6 3.4-7.6 7.6s3.4 7.6 7.6 7.6h155.4c20.1 0 36.4-16.3 36.4-36.4V366.1h193.2c20.5 0 37.2-16.7 37.2-37.2V144.6c0-4.2-3.4-7.6-7.6-7.6-4.2 0-7.6 3.4-7.6 7.6v184.3c0 12.2-9.9 22.1-22.1 22.1H253.1c-12.2 0-22.1-9.9-22.1-22.1V60.1c0-12.2 9.9-22.1 22.1-22.1h55.6v15.1h-55c-4.2 0-7.6 3.4-7.6 7.6v267.6c0 4.2 3.4 7.6 7.6 7.6h218.9c4.2 0 7.6-3.4 7.6-7.6V60.7c0-4.2-3.4-7.6-7.6-7.6h-43.9V38h44.5c12.2 0 22.1 9.9 22.1 22.1v59.3c.1 4.1 3.4 7.5 7.6 7.5zM46.4 237.7V178h169.5v59.7H46.4zm170.3 98.8h-33.3v-51.8h32.5v44.2c0 2.6.3 5.1.8 7.6zM112.8 465.4v-51.8h55.5v51.8h-55.5zm0-66.9v-46.9h55.5v46.9h-55.5zm-66.4-46.9h51.3v46.9H46.4v-46.9zm66.4-15.1v-51.8h55.5v51.8h-55.5zm-15.2-51.8v51.8H46.4v-51.8h51.2zM46.4 413.6h51.3v51.8H46.4v-51.8zm137 51.8v-51.8h51.3v51.8h-51.3zm51.3-66.9h-51.3v-46.9h40.3c3 3.9 6.7 7.1 11 9.6v37.3zm89.1-377.3c0-3.9 3.2-7.1 7.1-7.1h75.6c3.9 0 7.1 3.2 7.1 7.1v1.6h-89.8v-1.6zm141.3 47v252.5H261.3V68.2h47.4v.6c0 12.3 10 22.2 22.2 22.2h75.6c12.3 0 22.2-10 22.2-22.2v-.6h36.4zm-141.3 0h89.8v.6c0 3.9-3.2 7.1-7.1 7.1h-75.6c-3.9 0-7.1-3.2-7.1-7.1v-.6zm89.8-15.1h-89.8V38h89.8v15.1z"></path><path class="st0" d="M348.4 106.9c-3.8-1.8-8.3-.3-10.1 3.5l-29 59.6-13.1-23.6c-2-3.7-6.6-5-10.3-2.9-3.7 2-5 6.6-2.9 10.3l20.2 36.3c1.3 2.4 3.9 3.9 6.6 3.9h.2c2.8-.1 5.4-1.7 6.6-4.3l35.3-72.6c1.8-3.8.2-8.4-3.5-10.2zM439.4 161.2h-66.6c-4.2 0-7.6 3.4-7.6 7.6s3.4 7.6 7.6 7.6h66.6c4.2 0 7.6-3.4 7.6-7.6s-3.5-7.6-7.6-7.6zM365.2 136.5c0 4.2 3.4 7.6 7.6 7.6h66.6c4.2 0 7.6-3.4 7.6-7.6s-3.4-7.6-7.6-7.6h-66.6c-4.2 0-7.6 3.4-7.6 7.6zM348.4 202.2c-3.8-1.8-8.3-.3-10.1 3.5l-29 59.6-13.1-23.6c-2-3.7-6.6-5-10.3-2.9-3.7 2-5 6.6-2.9 10.3l20.2 36.3c1.3 2.4 3.9 3.9 6.6 3.9h.2c2.8-.1 5.4-1.7 6.6-4.3l35.3-72.6c1.8-3.8.2-8.4-3.5-10.2zM439.4 256.5h-66.6c-4.2 0-7.6 3.4-7.6 7.6s3.4 7.6 7.6 7.6h66.6c4.2 0 7.6-3.4 7.6-7.6s-3.5-7.6-7.6-7.6zM439.4 224.2h-66.6c-4.2 0-7.6 3.4-7.6 7.6s3.4 7.6 7.6 7.6h66.6c4.2 0 7.6-3.4 7.6-7.6s-3.5-7.6-7.6-7.6z"></path></svg> 