<?xml version="1.0" encoding="UTF-8"?> <svg xmlns="http://www.w3.org/2000/svg" id="Capa_1" width="480" height="480" viewBox="0 0 480 480"><style>.st0{fill:#393}</style><path class="st0" d="M440 0H104C81.9 0 64 17.9 64 40v376H8c-4.4 0-8 3.6-8 8v16c0 22.1 17.9 40 40 40h336c22.1 0 40-17.9 40-40V251.3l49.7-49.7c9.8-9.8 9.8-25.6 0-35.3s-25.6-9.8-35.3 0L416 180.7V64h56c4.4 0 8-3.6 8-8V40c0-22.1-17.9-40-40-40zM40 464c-13.3 0-24-10.7-24-24v-8h320v8c0 2.5.3 5 .8 7.4.1.8.4 1.5.6 2.2.4 1.6.9 3.2 1.5 4.8.3.8.6 1.6 1 2.3.7 1.5 1.5 2.9 2.3 4.2.4.7.8 1.4 1.3 2 .2.3.4.7.6 1H40zm360-24c0 13.3-10.7 24-24 24s-24-10.7-24-24v-16c0-4.4-3.6-8-8-8H80V40c0-13.3 10.7-24 24-24h304c-.2.3-.4.7-.6 1-.5.6-.9 1.3-1.3 2-.9 1.4-1.6 2.8-2.3 4.2-.4.8-.7 1.5-1 2.3-.6 1.6-1.1 3.2-1.5 4.8-.2.7-.4 1.5-.6 2.2-.5 2.4-.7 4.9-.7 7.4v156.7L298.3 298.3c-1 1-1.8 2.3-2.1 3.7l-8 32c-.7 2.7.1 5.6 2.1 7.6.7.6 1.5 1.2 2.3 1.5l.6.3c.9.3 1.8.5 2.7.5.7 0 1.3-.1 1.9-.2l32-8c1.4-.4 2.7-1.1 3.7-2.1l66.3-66.3V440zm41.7-262.3c3.5-3.4 9.1-3.4 12.7 0 3.5 3.5 3.5 9.2 0 12.7l-6.3 6.3-12.8-12.7 6.4-6.3zM424 195.3l12.7 12.7-112.8 112.8L307 325l4.2-16.9L424 195.3zM464 48h-48v-8c0-13.3 10.7-24 24-24s24 10.7 24 24v8z"></path><path class="st0" d="M152 48h176v16H152zM178.3 82.3L163.7 97c-1.1-.6-2.4-1-3.7-1h-40c-4.4 0-8 3.6-8 8v40c0 4.4 3.6 8 8 8h40c4.4 0 8-3.6 8-8v-28.7l21.7-21.7-11.4-11.3zM152 136h-24v-24h20.7l-10.3 10.3 11.3 11.3 2.3-2.3v4.7zM200 96h168v16H200zM200 128h136v16H200zM178.3 162.3L163.7 177c-1.1-.6-2.4-1-3.7-1h-40c-4.4 0-8 3.6-8 8v40c0 4.4 3.6 8 8 8h40c4.4 0 8-3.6 8-8v-28.7l21.7-21.7-11.4-11.3zM152 216h-24v-24h20.7l-10.3 10.3 11.3 11.3 2.3-2.3v4.7zM200 176h168v16H200zM200 208h136v16H200zM178.3 242.3L163.7 257c-1.1-.6-2.4-1-3.7-1h-40c-4.4 0-8 3.6-8 8v40c0 4.4 3.6 8 8 8h40c4.4 0 8-3.6 8-8v-28.7l21.7-21.7-11.4-11.3zM152 296h-24v-24h20.7l-10.3 10.3 11.3 11.3 2.3-2.3v4.7zM200 256h104v16H200zM200 288h72v16h-72zM178.3 322.3L163.7 337c-1.1-.6-2.4-1-3.7-1h-40c-4.4 0-8 3.6-8 8v40c0 4.4 3.6 8 8 8h40c4.4 0 8-3.6 8-8v-28.7l21.7-21.7-11.4-11.3zM152 376h-24v-24h20.7l-10.3 10.3 11.3 11.3 2.3-2.3v4.7zM200 336h72v16h-72zM200 368h136v16H200z"></path></svg> 