<?xml version="1.0" encoding="UTF-8"?> <svg xmlns="http://www.w3.org/2000/svg" id="Layer_1" width="512" height="398.2" viewBox="0 0 512 398.2"><style>.st0{fill:#393}</style><path class="st0" d="M312.5 275.8h-113c-8.5 0-15.4 6.9-15.4 15.4v34.6c0 8.5 6.9 15.4 15.4 15.4h112.9c8.5 0 15.4-6.9 15.4-15.4v-34.6c.1-8.4-6.8-15.4-15.3-15.4zm-4.4 45.7H203.9v-25.8H308v25.8z"></path><path class="st0" d="M507 190.1l.2-.1-74.5-147.1c-6-11.9-18-19.3-31.3-19.3h-14.1V9.9c0-5.5-4.4-9.9-9.9-9.9H134.7c-5.5 0-9.9 4.4-9.9 9.9v13.7h-14.1c-13.3 0-25.3 7.4-31.3 19.3L4.9 190l.2.1c-3.2 5.2-5 11.4-5 18v155.4c0 19.2 15.6 34.8 34.8 34.8h442.5c19.2 0 34.8-15.6 34.8-34.8V208c-.2-6.5-2-12.7-5.2-17.9zM387.2 45.6h14.1c5 0 9.4 2.8 11.7 7.2l61 120.5h-41.4v-37.1c0-5.5-4.4-9.9-9.9-9.9h-12.3V73.1c0-5.5-4.4-9.9-9.9-9.9h-13.2V45.6zm25.5 100.5v27.1h-52.4c-9 0-17.2 5.3-20.9 13.5l-14.3 31.7c-.1.3-.4.5-.8.5H187.6c-.3 0-.6-.2-.8-.5l-14.3-31.7c-3.7-8.2-11.9-13.5-20.9-13.5H99.3v-27.1h313.4zM144.6 19.8h222.8v43.3H144.6V19.8zM390.5 83v43.3h-269V83h269zM98.9 52.8c2.2-4.4 6.7-7.2 11.7-7.2h14.1v17.5h-13.2c-5.5 0-9.9 4.4-9.9 9.9v53.2H89.4c-5.5 0-9.9 4.4-9.9 9.9v37.1H38L98.9 52.8zm378.3 323.3H34.8c-7 0-12.7-5.7-12.7-12.7V208c0-7 5.7-12.7 12.7-12.7h116.9c.3 0 .6.2.8.5l14.3 31.7c3.7 8.2 11.9 13.5 20.9 13.5h136.8c9 0 17.2-5.3 20.9-13.5l14.3-31.7c.1-.3.4-.5.8-.5h116.9c7 0 12.7 5.7 12.7 12.7v155.4c-.1 7-5.8 12.7-12.9 12.7z"></path></svg> 