<?xml version="1.0" encoding="UTF-8"?> <svg xmlns="http://www.w3.org/2000/svg" id="Слой_1" width="480" height="480" viewBox="0 0 480 480"><style>.st0{fill:#393}</style><path class="st0" d="M240 0C107.5 0 0 107.5 0 240s107.5 240 240 240 240-107.5 240-240C479.9 107.5 372.5.1 240 0zm0 464C116.3 464 16 363.7 16 240S116.3 16 240 16s224 100.3 224 224c-.1 123.7-100.3 223.9-224 224z"></path><path class="st0" d="M240 32C125.1 32 32 125.1 32 240s93.1 208 208 208 208-93.1 208-208c-.1-114.8-93.2-207.9-208-208zm0 400c-106 0-192-86-192-192S134 48 240 48s192 86 192 192c-.1 106-86 191.9-192 192z"></path><path class="st0" d="M97.4 166.9l76.2 44c1.8 1.1 4 1.4 6.1.8 2.1-.5 3.8-1.9 4.9-3.7 11.4-19.8 32.5-32 55.4-32 4.4 0 8-3.6 8-8V80c0-4.4-3.6-8-8-8-59.6.1-114.7 31.7-144.9 83.1-.6.8-1.1 1.8-1.4 2.8-.9 3.5.6 7.2 3.7 9zM232 88.2v72.2c-22.8 2.3-43.5 14.3-56.9 32.9l-62.5-36.1c26.5-40.7 70.9-66.3 119.4-69zM240 304c-22.8 0-43.9-12.2-55.4-32-1.1-1.8-2.8-3.2-4.9-3.7s-4.2-.3-6.1.8l-76.2 44c-1.9 1.1-3.3 3-3.8 5.2s0 4.5 1.3 6.3C125 376.2 180.2 407.9 240 408c4.4 0 8-3.6 8-8v-88c0-4.4-3.6-8-8-8zm-8 87.8c-48.5-2.7-92.9-28.3-119.4-69l62.5-36.1c13.4 18.6 34.1 30.5 56.9 32.9v72.2zM385.8 156.6c-1.1-2.1-3-3.6-5.3-4.2-2.3-.6-4.7-.2-6.7 1.1l-75.5 43.6c-3.8 2.2-5.1 7.1-2.9 10.9 11.5 19.8 11.5 44.2 0 63.9-1.1 1.8-1.4 4-.8 6.1.5 2.1 1.9 3.8 3.7 4.9l75.9 43.8c2 1.3 4.5 1.7 6.7.9s4.1-2.4 5-4.6c29.5-51.5 29.4-114.9-.1-166.4zm-10.4 152.3l-62.5-36.1c9.4-20.9 9.4-44.9 0-65.8l62.5-36.1c22.1 43.5 22.1 94.7 0 138zM240 192c-26.5 0-48 21.5-48 48s21.5 48 48 48 48-21.5 48-48-21.5-48-48-48zm0 80c-17.7 0-32-14.3-32-32s14.3-32 32-32 32 14.3 32 32-14.3 32-32 32z"></path></svg> 