<svg xmlns="http://www.w3.org/2000/svg" width="512" height="512"><path d="M462 172c2.6 0 5.2-1.1 7.1-2.9 1.9-1.9 2.9-4.4 2.9-7.1s-1.1-5.2-2.9-7.1c-1.9-1.9-4.4-2.9-7.1-2.9s-5.2 1.1-7.1 2.9-2.9 4.4-2.9 7.1 1.1 5.2 2.9 7.1c1.9 1.8 4.5 2.9 7.1 2.9zM196.5 443.7h-.1c-5.5 0-10 4.5-10 10s4.5 10 10 10h.1c5.5 0 10-4.5 10-10s-4.5-10-10-10z"/><path d="M512 401.6V70c0-16.5-13.5-30-30-30h-34.3v-6c0-18.7-15.3-34-34-34s-34 15.3-34 34v6h-89.9v-6c0-18.7-15.3-34-34-34s-34 15.3-34 34v6H132v-6c0-18.7-15.3-34-34-34S64 15.3 64 34v6H30C13.5 40 0 53.5 0 70v412c0 16.5 13.5 30 30 30h371.6c2.8 0 5.3-1.1 7.1-2.9l100.4-100.4c1.8-1.8 2.9-4.3 2.9-7.1zM399.7 34c0-7.7 6.3-14 14-14s14 6.3 14 14v49c0 7.7-6.3 14-14 14s-14-6.3-14-14V34zm-157.8 0c0-7.7 6.3-14 14-14s14 6.3 14 14v49c0 7.7-6.3 14-14 14s-14-6.3-14-14V34zM84 34c0-7.7 6.3-14 14-14s14 6.3 14 14v49c0 7.7-6.3 14-14 14s-14-6.3-14-14V34zM20 482v-18.3h136.5c5.5 0 10-4.5 10-10s-4.5-10-10-10H20V172h402c5.5 0 10-4.5 10-10s-4.5-10-10-10H20V70c0-5.5 4.5-10 10-10h34v23c0 18.7 15.3 34 34 34s34-15.3 34-34V60h89.9v23c0 18.7 15.3 34 34 34s34-15.3 34-34V60h89.9v23c0 18.7 15.3 34 34 34s34-15.3 34-34V60H482c5.5 0 10 4.5 10 10v321.6h-70.4c-16.5 0-30 13.5-30 30V492H30c-5.5 0-10-4.5-10-10zm391.6-4.1v-56.3c0-5.5 4.5-10 10-10h56.3l-66.3 66.3z"/><path d="M196.1 350.5v-69c0-10.7-8.7-19.5-19.5-19.5h-43.3c-5.5 0-10 4.5-10 10s4.5 10 10 10h42.8v24h-42.8c-5.5 0-10 4.5-10 10s4.5 10 10 10h42.8v24h-42.8c-5.5 0-10 4.5-10 10s4.5 10 10 10h43.3c10.7 0 19.5-8.7 19.5-19.5zM282.9 282c5.5 0 10-4.5 10-10s-4.5-10-10-10h-43.3c-10.7 0-19.5 8.7-19.5 19.5v69c0 10.7 8.7 19.5 19.5 19.5h33.8c10.7 0 19.5-8.7 19.5-19.5v-25c0-10.7-8.7-19.5-19.5-19.5h-33.3v-24h42.8zm-24.2 44h14.2v24h-32.8v-24h18.6zM370.2 306h-33.3v-24h42.8c5.5 0 10-4.5 10-10s-4.5-10-10-10h-43.3c-10.7 0-19.5 8.7-19.5 19.5v25c0 10.7 8.7 19.5 19.5 19.5h33.3v24h-42.8c-5.5 0-10 4.5-10 10s4.5 10 10 10h43.3c10.7 0 19.5-8.7 19.5-19.5v-25c0-10.8-8.8-19.5-19.5-19.5z"/></svg>