<svg xmlns="http://www.w3.org/2000/svg" width="512" height="512" viewBox="0 0 512 512"><path d="M504 92.7L419.3 8H200v99.1l-56.1-54.3L8 188.7v118.7l208.1 199.8L331.3 392H504V92.7zm-80-57.4L476.7 88H424V35.3zM60.7 248L24 284.7v-73.4L60.7 248zm155.2 236.8L27.4 303.9 83.3 248l-56-56L144.1 75.2l244.5 236.9-172.7 172.7zM328 231.1l-16-15.5V184h16v47.1zm64 62l-16-15.5V168h16v125.1zM379.3 344l12.7-12.7V344h-12.7zm-32 32l16-16H472V120h-48v224h-16v-28.7l3.4-3.4-3.4-3.3V152h-48v110.1l-16-15.5V168h-48v32.1l-80-77.5V24h192v80h80v272H347.3zm92.7-32V136h16v208h-16z"/><path d="M216 368c-.3 0-.6.1-1 .1l-15.7-35.4-14.6 6.5 14.5 32.6C185.5 378.2 176 392 176 408c0 22.1 17.9 40 40 40s40-17.9 40-40-17.9-40-40-40zm0 64c-13.2 0-24-10.8-24-24 0-9.5 5.6-17.7 13.7-21.6l7.9 17.8-9.2 4.6 7.2 14.3 22.8-11.4-11.9-26.7c10 2.9 17.5 12 17.5 23 0 13.2-10.8 24-24 24zM120 280c-.3 0-.6.1-1 .1l-15.7-35.4-14.6 6.5 14.5 32.6C89.5 290.2 80 304 80 320c0 22.1 17.9 40 40 40s40-17.9 40-40-17.9-40-40-40zm0 64c-13.2 0-24-10.8-24-24 0-9.5 5.6-17.7 13.7-21.6l7.9 17.8-9.2 4.6 7.2 14.3 22.8-11.4-11.9-26.7c10 2.9 17.5 12 17.5 23 0 13.2-10.8 24-24 24zM74.3 218.3l96-96 11.3 11.3-96 96-11.3-11.3zM50.3 194.3l96-96 11.3 11.3-96 96-11.3-11.3zM178.3 290.3l80-80 11.3 11.3-80 80-11.3-11.3zM154.3 266.3l80-80 11.3 11.3-80 80-11.3-11.3zM130.3 242.3l80-80 11.3 11.3-80 80-11.3-11.3zM274.3 378.3l80-80 11.3 11.3-80 80-11.3-11.3zM250.3 354.3l80-80 11.3 11.3-80 80-11.3-11.3zM226.3 330.3l80-80 11.3 11.3-80 80-11.3-11.3zM232 40h16v16h-16V40zM264 40h128v16H264V40zM232 72h160v16H232V72zM232 104h160v16H232v-16z"/></svg>