<svg xmlns="http://www.w3.org/2000/svg" width="512" height="512" viewBox="0 0 512 512"><path d="M488 488h16v16h-16v-16zM8 488h16v16H8v-16zM429.5 424H352v-16h24c22.1 0 40-17.9 40-40v-8h-40c-9 0-17.3 3.1-24 8.2V296c0-11.3-2.2-22.1-6.1-32H408c48.5 0 88-39.5 88-88v-8h-72c-45.2 0-82.6 34.3-87.4 78.3-15.9-23.1-42.5-38.3-72.6-38.3h-72v8c0 48.5 39.5 88 88 88h56v32.9c-10.2-10.4-24.3-16.9-40-16.9h-40v8c0 30.9 25.1 56 56 56h24v40h-77.5L240 473.2 221.5 424H160v-16h24c22.1 0 40-17.9 40-40v-8h-40c-9 0-17.3 3.1-24 8.2v-.2c0-30.9-25.1-56-56-56H64v8c0 30.9 25.1 56 56 56h24v48H82.5l-24 64H40v16h432v-16h-18.5l-24-64zM376 376h22.6c-3.3 9.3-12.2 16-22.6 16h-22.6c3.3-9.3 12.2-16 22.6-16zm48-192h55.6c-4 36-34.6 64-71.6 64h-55.6c4-36 34.6-64 71.6-64zM280 288c-37 0-67.6-28-71.6-64H264c37 0 67.6 28 71.6 64H280zm32 80c-19.3 0-35.5-13.8-39.2-32H296c19.3 0 35.5 13.8 39.2 32H312zm-128 8h22.6c-3.3 9.3-12.2 16-22.6 16h-22.6c3.3-9.3 12.2-16 22.6-16zm-64-16c-19.3 0-35.5-13.8-39.2-32H104c19.3 0 35.5 13.8 39.2 32H120zM75.5 488l18-48h116.9l18 48H75.5zm176 0l18-48h148.9l18 48H251.5z"/><path d="M104 456h16v16h-16v-16zM168 464h16v16h-16v-16zM280 448h16v16h-16v-16zM328 464h16v16h-16v-16zM384 448h16v16h-16v-16zM480 8H304c-13.2 0-24 10.8-24 24v64c0 13.2 10.8 24 24 24h70.3l81.7 36.3V120h24c13.2 0 24-10.8 24-24V32c0-13.2-10.8-24-24-24zm8 88c0 4.4-3.6 8-8 8h-40v27.7L377.7 104H304c-4.4 0-8-3.6-8-8V32c0-4.4 3.6-8 8-8h176c4.4 0 8 3.6 8 8v64z"/><path d="M312 40h16v16h-16V40zM344 40h128v16H344V40zM344 72h128v16H344V72zM312 72h16v16h-16V72zM120 176c30.9 0 56-25.1 56-56s-25.1-56-56-56-56 25.1-56 56 25.1 56 56 56zm0-96c22.1 0 40 17.9 40 40s-17.9 40-40 40-40-17.9-40-40 17.9-40 40-40z"/><path d="M37.6 202.4l9.7-.9c12.1-1.2 24.8.8 36.6 5.7 11.9 4.9 22.2 12.5 29.9 21.9l6.2 7.5 6.2-7.5c7.7-9.4 18.1-17 29.9-21.9 11.9-4.9 24.5-6.9 36.6-5.7l9.7.9-.9-9.7c-1.2-12.1.8-24.8 5.7-36.6 4.9-11.9 12.5-22.2 21.9-30l7.5-6.2-7.5-6.2c-9.4-7.7-17-18.1-21.9-30-4.9-11.8-6.9-24.5-5.7-36.6l.9-9.7-9.7.9c-12.1 1.2-24.8-.8-36.6-5.7-11.9-4.9-22.2-12.5-29.9-21.9L120 3.4l-6.2 7.5c-7.7 9.4-18.1 17-29.9 21.9-11.8 4.9-24.5 6.9-36.6 5.7l-9.7-.9.9 9.7c1.2 12.1-.8 24.8-5.7 36.6-4.9 11.9-12.5 22.2-21.9 30L3.4 120l7.5 6.2c9.4 7.7 17 18.1 21.9 30 4.9 11.8 6.9 24.5 5.7 36.6l-.9 9.6zM27.8 120c8.3-8.4 15-18.7 19.7-30s7.2-23.3 7.3-35.2c11.8-.1 23.8-2.6 35.2-7.3s21.6-11.4 30-19.7c8.4 8.3 18.7 15 30 19.7s23.3 7.2 35.2 7.3c.1 11.8 2.6 23.8 7.3 35.2s11.4 21.6 19.7 30c-8.3 8.4-15 18.7-19.7 30s-7.2 23.3-7.3 35.2c-11.8.1-23.8 2.6-35.2 7.3s-21.6 11.4-30 19.7c-8.4-8.3-18.7-15-30-19.7s-23.3-7.2-35.2-7.3c-.1-11.8-2.6-23.8-7.3-35.2-4.6-11.3-11.4-21.6-19.7-30z"/></svg>