<svg xmlns="http://www.w3.org/2000/svg" width="438.5" height="438.5" viewBox="0 0 438.5 438.5"><path d="M409.1 109.2c-19.6-33.6-46.2-60.2-79.8-79.8C295.7 9.8 259.1 0 219.3 0s-76.5 9.8-110.1 29.4C75.6 49 49 75.6 29.4 109.2 9.8 142.8 0 179.5 0 219.3s9.8 76.5 29.4 110.1c19.6 33.6 46.2 60.2 79.8 79.8 33.6 19.6 70.3 29.4 110.1 29.4s76.5-9.8 110.1-29.4c33.6-19.6 60.2-46.2 79.8-79.8 19.6-33.6 29.4-70.3 29.4-110.1-.1-39.8-9.9-76.5-29.5-110.1zm-86.5 161.7c3.6 3.6 5.4 7.9 5.4 12.9 0 5.1-1.8 9.5-5.4 13.1l-25.7 25.7c-3.6 3.6-8 5.4-13.1 5.4-4.9 0-9.2-1.8-12.8-5.4l-51.7-51.7-51.7 51.7c-3.6 3.6-7.9 5.4-12.8 5.4-5.1 0-9.5-1.8-13.1-5.4L116 296.9c-3.6-3.6-5.4-8-5.4-13.1 0-4.9 1.8-9.2 5.4-12.9l51.7-51.7-51.7-51.7c-3.6-3.6-5.4-7.9-5.4-12.8 0-5.1 1.8-9.5 5.4-13.1l25.7-25.7c3.6-3.6 8-5.4 13.1-5.4 4.9 0 9.2 1.8 12.8 5.4l51.7 51.7 51.7-51.7c3.6-3.6 7.9-5.4 12.8-5.4 5.1 0 9.5 1.8 13.1 5.4l25.7 25.7c3.6 3.6 5.4 8 5.4 13.1 0 4.9-1.8 9.2-5.4 12.8l-51.7 51.7 51.7 51.7z" fill="#fd5052"/></svg>