<svg xmlns="http://www.w3.org/2000/svg" width="85.8" height="68" viewBox="0 0 85.8 68"><path d="M35.8 38.4c1.9 2.9 2.8 6.4 2.8 10.4 0 5.7-1.8 10.4-5.4 13.9C29.6 66.2 25 68 19.4 68c-5.6 0-10.2-1.8-13.9-5.4C1.8 59 0 54.4 0 48.8c0-2.7.3-5.3 1-8s2.1-6.7 4.4-12L17 0h19.8L28 31.8c3.3 1.5 5.9 3.7 7.8 6.6zm47.2 0c1.9 2.9 2.8 6.4 2.8 10.4 0 5.7-1.8 10.4-5.4 13.9-3.6 3.5-8.2 5.3-13.8 5.3-5.6 0-10.2-1.8-13.9-5.4-3.7-3.6-5.5-8.2-5.5-13.8 0-2.7.3-5.3 1-8s2.1-6.7 4.4-12L64.2 0H84l-8.8 31.8c3.3 1.5 5.9 3.7 7.8 6.6z" fill="#66be55"/></svg>