<svg xmlns="http://www.w3.org/2000/svg" width="631.9" height="561.8" viewBox="0 0 631.9 561.8"><linearGradient id="a" gradientUnits="userSpaceOnUse" x1="315.8954" y1="30" x2="315.8954" y2="531.8" gradientTransform="matrix(1 0 0 -1 0 561.8)"><stop offset="0" stop-color="#f93"/><stop offset="1" stop-color="#fc3"/></linearGradient><path d="M109.3 531.8c-19 0-37.4-6.9-51.9-19.4-22.9-19.8-32.5-50.4-25-79.7l38.7-151.8-38.7-151.8c-7.5-29.3 2.1-59.9 25-79.7C71.8 36.9 90.3 30 109.3 30c10.5 0 20.8 2.1 30.5 6.1l413.1 171.4c30.2 12.5 49 40.7 49 73.4s-18.8 60.8-49 73.4L139.8 525.7c-9.8 4-20 6.1-30.5 6.1z" fill="url(#a)"/><path d="M109.3 60c6.4 0 12.9 1.3 19 3.8l413.1 171.4c18.8 7.8 30.5 25.3 30.5 45.7 0 20.4-11.7 37.9-30.5 45.7L128.3 498c-6.2 2.6-12.6 3.8-19 3.8-11.6 0-23.1-4.1-32.3-12.1-14.2-12.3-20.2-31.3-15.5-49.6l36.7-144.2h180c8.3 0 15-6.7 15-15s-6.7-15-15-15h-180L61.5 121.7c-4.7-18.3 1.3-37.3 15.5-49.6C86.2 64.2 97.6 60 109.3 60m0-60C83.1 0 57.7 9.5 37.8 26.7 22.4 40.1 11 57.3 5 76.7c-6.1 19.4-6.6 40-1.6 59.8l36.8 144.2v.4L3.4 425.3c-5 19.8-4.5 40.4 1.6 59.8s17.4 36.6 32.8 50c19.9 17.2 45.3 26.7 71.5 26.7 14.5 0 28.6-2.8 42-8.4L564.4 382c20.2-8.4 37.2-22.3 49.2-40.2 12-17.9 18.3-39 18.3-60.9s-6.3-42.9-18.3-60.9c-12-17.9-29-31.8-49.2-40.2L151.3 8.4c-13.4-5.6-27.6-8.4-42-8.4z" fill="#fff"/></svg>